<?xml version="1.0" encoding="UTF-8"?>
<!DOCTYPE svg PUBLIC "-//W3C//DTD SVG 1.1//EN" "http://www.w3.org/Graphics/SVG/1.1/DTD/svg11.dtd">
<svg xmlns="http://www.w3.org/2000/svg" version="1.1" width="1920px" height="1080px" style="shape-rendering:geometricPrecision; text-rendering:geometricPrecision; image-rendering:optimizeQuality; fill-rule:evenodd; clip-rule:evenodd" xmlns:xlink="http://www.w3.org/1999/xlink">
<g><path style="opacity:1" fill="#d1e2c7" d="M -0.5,-0.5 C 639.5,-0.5 1279.5,-0.5 1919.5,-0.5C 1919.5,121.5 1919.5,243.5 1919.5,365.5C 1893.17,365.5 1866.83,365.5 1840.5,365.5C 1823.21,354.851 1805.55,344.685 1787.5,335C 1766.54,326.43 1745.54,326.43 1724.5,335C 1707.89,342.464 1693.22,352.631 1680.5,365.5C 1288.17,365.5 895.833,365.5 503.5,365.5C 484.778,350.62 466.778,334.786 449.5,318C 432.508,302.171 412.508,292.171 389.5,288C 378.999,286.867 368.665,287.534 358.5,290C 315.44,310.61 275.44,335.777 238.5,365.5C 158.833,365.5 79.1667,365.5 -0.5,365.5C -0.5,243.5 -0.5,121.5 -0.5,-0.5 Z"/></g>
<g><path style="opacity:1" fill="#4f6f52" d="M 503.5,365.5 C 516.974,377.468 530.641,389.302 544.5,401C 566.888,412.685 590.222,422.019 614.5,429C 618.926,429.791 623.259,429.457 627.5,428C 635.995,423.587 644.328,418.92 652.5,414C 674.481,409.204 695.815,411.204 716.5,420C 739.119,431.305 760.119,444.972 779.5,461C 790.799,470.631 801.799,480.631 812.5,491C 828.006,507.673 844.006,523.839 860.5,539.5C 888.416,570.266 919.749,596.766 954.5,619C 966.435,625.801 978.768,631.801 991.5,637C 1020.91,647.803 1050.24,658.803 1079.5,670C 1091.76,675.283 1103.26,681.783 1114,689.5C 1155.42,676.715 1192.59,656.548 1225.5,629C 1257.31,600.693 1287.64,570.859 1316.5,539.5C 1342.78,512.035 1372.12,488.535 1404.5,469C 1427.62,454.51 1452.62,449.51 1479.5,454C 1483.72,455.109 1487.72,456.775 1491.5,459C 1499.01,464.756 1507.35,468.923 1516.5,471.5C 1543.41,464.365 1569.08,454.198 1593.5,441C 1622.69,415.968 1651.69,390.802 1680.5,365.5C 1693.22,352.631 1707.89,342.464 1724.5,335C 1745.54,326.43 1766.54,326.43 1787.5,335C 1805.55,344.685 1823.21,354.851 1840.5,365.5C 1868.81,383.124 1895.14,403.457 1919.5,426.5C 1919.5,644.167 1919.5,861.833 1919.5,1079.5C 1279.5,1079.5 639.5,1079.5 -0.5,1079.5C -0.5,872.833 -0.5,666.167 -0.5,459.5C 13.269,443.897 27.9357,429.064 43.5,415C 54.2713,405.544 66.6046,402.877 80.5,407C 87.9564,410.227 94.9564,414.227 101.5,419C 114.645,429.978 126.978,441.811 138.5,454.5C 172.474,425.525 205.807,395.858 238.5,365.5C 275.44,335.777 315.44,310.61 358.5,290C 368.665,287.534 378.999,286.867 389.5,288C 412.508,292.171 432.508,302.171 449.5,318C 466.778,334.786 484.778,350.62 503.5,365.5 Z"/></g>
<g><path style="opacity:1" fill="#86a789" d="M -0.5,365.5 C 79.1667,365.5 158.833,365.5 238.5,365.5C 205.807,395.858 172.474,425.525 138.5,454.5C 126.978,441.811 114.645,429.978 101.5,419C 94.9564,414.227 87.9564,410.227 80.5,407C 66.6046,402.877 54.2713,405.544 43.5,415C 27.9357,429.064 13.269,443.897 -0.5,459.5C -0.5,428.167 -0.5,396.833 -0.5,365.5 Z"/></g>
<g><path style="opacity:1" fill="#86a789" d="M 503.5,365.5 C 895.833,365.5 1288.17,365.5 1680.5,365.5C 1651.69,390.802 1622.69,415.968 1593.5,441C 1569.08,454.198 1543.41,464.365 1516.5,471.5C 1507.35,468.923 1499.01,464.756 1491.5,459C 1487.72,456.775 1483.72,455.109 1479.5,454C 1452.62,449.51 1427.62,454.51 1404.5,469C 1372.12,488.535 1342.78,512.035 1316.5,539.5C 1164.5,539.5 1012.5,539.5 860.5,539.5C 844.006,523.839 828.006,507.673 812.5,491C 801.799,480.631 790.799,470.631 779.5,461C 760.119,444.972 739.119,431.305 716.5,420C 695.815,411.204 674.481,409.204 652.5,414C 644.328,418.92 635.995,423.587 627.5,428C 623.259,429.457 618.926,429.791 614.5,429C 590.222,422.019 566.888,412.685 544.5,401C 530.641,389.302 516.974,377.468 503.5,365.5 Z"/></g>
<g><path style="opacity:1" fill="#86a789" d="M 1840.5,365.5 C 1866.83,365.5 1893.17,365.5 1919.5,365.5C 1919.5,385.833 1919.5,406.167 1919.5,426.5C 1895.14,403.457 1868.81,383.124 1840.5,365.5 Z"/></g>
<g><path style="opacity:1" fill="#728f71" d="M 860.5,539.5 C 1012.5,539.5 1164.5,539.5 1316.5,539.5C 1287.64,570.859 1257.31,600.693 1225.5,629C 1192.59,656.548 1155.42,676.715 1114,689.5C 1103.26,681.783 1091.76,675.283 1079.5,670C 1050.24,658.803 1020.91,647.803 991.5,637C 978.768,631.801 966.435,625.801 954.5,619C 919.749,596.766 888.416,570.266 860.5,539.5 Z"/></g>
</svg>
