<?xml version="1.0" standalone="no"?>
<!DOCTYPE svg PUBLIC "-//W3C//DTD SVG 20010904//EN"
 "http://www.w3.org/TR/2001/REC-SVG-20010904/DTD/svg10.dtd">
<svg version="1.0" xmlns="http://www.w3.org/2000/svg"
 width="512.000000pt" height="512.000000pt" viewBox="0 0 512.000000 512.000000"
 preserveAspectRatio="xMidYMid meet">

<g transform="translate(0.000000,512.000000) scale(0.100000,-0.100000)"
fill="#000000" stroke="none">
<path d="M835 4333 c-240 -51 -447 -200 -580 -418 -40 -67 -44 -70 -87 -76
-56 -8 -74 -18 -115 -61 -80 -84 -64 -215 36 -285 l39 -28 4 -160 c4 -141 8
-170 32 -240 15 -44 42 -105 61 -136 l33 -57 5 -278 c4 -252 7 -291 31 -400
35 -163 74 -272 156 -439 92 -184 178 -303 330 -455 274 -275 576 -432 975
-508 66 -12 215 -16 855 -19 531 -3 810 -1 885 7 352 36 666 161 940 374 108
85 275 261 357 376 81 114 195 339 237 470 113 347 120 715 20 1028 -149 467
-514 837 -973 987 -122 40 -359 89 -391 81 -37 -9 -83 -53 -95 -91 -25 -76 23
-138 137 -175 147 -49 266 -124 374 -236 108 -114 168 -216 216 -371 l27 -88
4 -492 c3 -545 5 -533 -61 -573 -56 -34 -122 -20 -166 36 -21 26 -21 36 -21
433 0 246 -4 421 -10 443 -6 20 -25 49 -42 63 -30 25 -37 27 -107 23 -220 -11
-361 -182 -361 -440 l0 -68 -33 0 c-51 0 -145 -27 -207 -61 -108 -57 -203
-171 -242 -289 -20 -60 -22 -90 -26 -367 l-4 -303 -611 0 -612 0 45 21 c206
93 209 370 5 465 -49 23 -56 24 -357 24 -338 0 -376 4 -485 56 -156 74 -283
264 -283 424 l0 35 93 1 c117 1 207 23 324 79 l93 44 93 -44 c132 -62 200 -78
341 -80 l119 -1 27 -61 c80 -177 237 -326 417 -398 102 -41 199 -55 378 -55
l165 0 0 53 c0 119 68 302 151 406 l39 51 -225 0 -225 0 0 53 c1 95 56 174
138 197 20 5 69 10 108 10 59 0 81 5 125 28 183 95 186 349 7 447 -45 25 -67
30 -144 33 -101 5 -228 -16 -303 -49 -24 -10 -47 -19 -52 -19 -5 0 -9 46 -8
103 l0 102 42 30 c49 35 87 104 87 155 -1 49 -30 110 -73 147 -32 28 -57 37
-126 46 -8 1 -33 33 -56 72 -135 221 -342 369 -587 419 -108 22 -778 22 -883
-1z m807 -374 c167 -35 318 -168 380 -335 19 -52 22 -79 22 -239 1 -175 0
-182 -26 -237 -32 -70 -96 -135 -163 -168 -42 -21 -65 -25 -145 -25 l-96 0
-114 56 -114 55 61 42 c46 31 64 51 77 83 34 85 -10 205 -90 245 -32 15 -61
19 -154 19 -93 0 -122 -4 -154 -19 -80 -40 -124 -160 -90 -245 13 -32 31 -52
77 -83 l61 -42 -114 -55 -114 -56 -96 0 c-84 0 -101 3 -148 28 -70 37 -128 97
-160 166 -23 49 -27 72 -30 187 -5 169 9 253 59 354 65 130 184 226 329 264
69 18 659 22 742 5z"/>
<path d="M714 3571 c-68 -31 -94 -114 -54 -178 53 -88 175 -81 220 12 18 37
20 49 10 84 -10 38 -58 91 -83 91 -7 0 -21 2 -32 5 -11 3 -38 -3 -61 -14z"/>
<path d="M1756 3580 c-42 -13 -75 -48 -87 -93 -9 -32 -7 -45 11 -82 45 -93
167 -100 220 -12 40 64 14 147 -54 178 -46 21 -49 21 -90 9z"/>
</g>
</svg>
